<?xml version="1.0" encoding="UTF-8"?>
<svg id="Layer_2" data-name="Layer 2" xmlns="http://www.w3.org/2000/svg" viewBox="0 0 722.65 280.82">
  <defs>
    <style>
      .cls-1, .cls-2, .cls-3, .cls-4, .cls-5 {
        stroke-width: 0px;
      }

      .cls-2 {
        fill: #5364f7;
      }

      .cls-3 {
        fill: #121541;
      }

      .cls-4 {
        fill: #fff;
      }

      .cls-5 {
        fill: #fcfcfc;
      }
    </style>
  </defs>
  <g id="Layer_1-2" data-name="Layer 1">
    <g>
      <path class="cls-5" d="M.09,234.82C.09,197.76.17,160.69,0,123.62c-.02-4.53.46-6.3,5.87-6.29,132.73.2,265.47.15,398.2.18,2.78,0,5.97-1.54,5.93,4.13-.3,37.73-.17,75.46-.11,113.19,0,1.71-.34,2.36-2.04,1.98-2.28-3.8-6-1.95-8.97-1.95-132.93-.09-265.86-.06-398.79-.04ZM29.89,203.07c-.13-.24-.23-.52-.41-.71-.08-.09-.34-.01-.51,0,.36.18.71.35,1.07.53-.97,2.47.97,3.57,2.36,4.86,13.78,12.88,35.36,14.82,51.58,4.66,16.01-10.03,24.28-30.95,19.16-48.48-3.28-11.24-17.86-16.56-27.38-9.73-3.18,2.28-6.05,5.22-8.44,8.33-4.3,5.63-7.81,5.7-12.12-.08-3.47-4.66-7.49-9.4-14.64-5.6.87,4.16,4.18,6.15,6.55,8.75,8.9,9.76,8.91,9.65-.48,19.47-3.6,3.77-7.33,7-12.95,4.99-5.84-2.09-7.61-6.99-7.78-12.62-.41-13.59,4.73-24.6,16.1-32.18,11.81-7.88,24.35-8.16,36.58-1.25,4.62,2.62,8.98,3.52,14.07,2.95-9.89-14.7-31.05-19.91-48.65-12.11-18.69,8.29-29.82,30.08-25.06,49.08,3.9,15.52,19.67,20.1,31.43,9.07,3.6-3.37,6.66-9.14,10.65-9.8,4.6-.77,7.11,6.02,10.77,9.26,2.85,2.53,6.6,3.51,8.92,1.13,2.39-2.45-1.63-4.34-3.02-6.33-1.32-1.89-2.79-3.81-4.6-5.19-6.43-4.92-5.59-9.44.2-14.17,1.77-1.45,2.97-3.59,4.68-5.13,6.8-6.11,15.33-3.73,17.45,5.16,3.29,13.84-1.06,25.71-11.68,34.64-11.73,9.86-25.22,11.38-38.85,4.11-4.92-2.62-9.55-4.27-15.01-3.61ZM177.27,191.28c2.98,1.44,4.64,2.56,6.48,3.09,6.55,1.87,12.69.98,17.05-4.57,6.11-7.77,5.7-16.66,2.51-25.36-2.41-6.59-7.89-9.82-14.82-9.26-5.6.45-10.83,3.54-16.84.69-3-1.43-4.45,1.22-4.44,4.47.08,14.52.13,29.05-.02,43.57-.04,4.06,1.76,4.99,5.4,4.94,3.37-.05,4.81-1.27,4.71-4.65-.13-3.95-.03-7.91-.03-12.93ZM255.71,175.3c0,4.64.1,9.28-.03,13.91-.1,3.59.94,5.47,5.03,5.48,4.23.01,4.94-2.16,4.88-5.61-.1-5.3,0-10.6-.02-15.9-.03-5.74,3.07-8.5,8.53-8.79,5.92-.31,7.15,3.62,7.19,8.41.04,5.63.14,11.27,0,16.89-.1,4.04,1.95,4.99,5.56,4.97,3.72-.02,4.38-2.01,4.35-5.05-.06-6.63.06-13.25-.03-19.88-.18-13-7.11-17.68-19.54-13.31-1.75.61-3.22,3.09-5.21,1.78-11.5-7.56-10.73.71-10.7,8.14.01,2.98,0,5.96,0,8.94ZM236.45,172.74c-2.23-.65-4.32-1.39-6.47-1.86-6.23-1.35-12.18-.72-15.83,5.08-2.79,4.44-2.73,9.45.59,13.92,4.14,5.59,9.91,6.06,16.07,4.68,1.84-.41,4.13-2.59,5.2-2.03,13.54,7.12,11.17-2.93,11.31-10.26.06-2.98.02-5.95,0-8.93-.09-16.34-13.22-23.86-27.77-15.82-2.35,1.3-5.72,2.16-3.71,6.56,2.14,4.67,4.37,1.81,6.95.87,9.36-3.41,13.22-1.23,13.65,7.79ZM358.74,195.21c1.22-.15,3.68,0,5.77-.8,3.11-1.19,8.36-1.3,7.37-6.19-1.06-5.25-5.25-3.25-8.73-2.06-3.57,1.23-7.22,1.22-10.49-.92-1.89-1.24-4.33-2.76-3.56-5.32.69-2.26,3.35-1.3,5.16-1.35,4.96-.13,9.96-.39,14.88.04,7.05.61,7.63-2.81,6.24-8.39-2.74-10.95-11.19-16.74-22.14-14.9-10.03,1.68-16.09,10.39-15.33,22.01.71,10.83,8.39,17.79,20.82,17.88ZM121.82,193.49c12.1,5,13.42-6.01,18.65-10.86q10.79,12.4,19.84,10.07c-13-11.74-15.37-24.01.46-36.45q-11.36-.69-20.08,10.25-8.32-10.99-17.43-10.17c1.43,7.38,10.79,11.88,9.58,18.67-1.17,6.54-7.09,12.24-11.03,18.48ZM315.08,155c-7.94.11-14.66,2.08-16.09,10.52-1.46,8.59,4.84,11.2,11.72,13.09,3.7,1.02,10.88.18,9.26,5.76-1.5,5.17-7.87,2.43-12.24,1.2-.94-.26-1.93-.64-2.68-1.24-2.34-1.85-3.87-1.62-5.43,1.13-1.67,2.94-1.33,4.79,1.66,6.43,7.45,4.08,15.1,4.65,22.83,1.2,4.68-2.08,6.83-5.92,6.48-11.19-.33-4.94-2.97-7.92-7.43-9.45-3.11-1.07-6.31-1.9-9.46-2.88-2.1-.65-5.11-.77-4.52-3.95.43-2.27,2.86-2.4,4.91-2.32,1.65.07,3.31.13,4.93.41,3.11.54,7.11,4.81,8.86-.95,1.78-5.83-4.16-5.51-7.33-7-1.7-.8-3.89-.58-5.47-.77Z"/>
      <path class="cls-2" d="M.09,234.82c132.93-.02,265.86-.05,398.79.04,2.98,0,6.69-1.85,8.97,1.95-132.95,0-265.89.02-398.84-.12-2.9,0-6.73,2.29-8.92-1.86Z"/>
      <path class="cls-2" d="M29.89,203.07c5.46-.66,10.09.98,15.01,3.61,13.63,7.27,27.12,5.76,38.85-4.11,10.62-8.93,14.97-20.8,11.68-34.64-2.11-8.89-10.65-11.27-17.45-5.16-1.71,1.54-2.91,3.68-4.68,5.13-5.79,4.73-6.63,9.25-.2,14.17,1.81,1.38,3.28,3.3,4.6,5.19,1.39,1.99,5.41,3.89,3.02,6.33-2.33,2.38-6.07,1.4-8.92-1.13-3.66-3.24-6.17-10.03-10.77-9.26-3.98.67-7.05,6.43-10.65,9.8-11.76,11.02-27.53,6.45-31.43-9.07-4.77-18.99,6.36-40.79,25.06-49.08,17.6-7.8,38.76-2.59,48.65,12.11-5.09.57-9.45-.34-14.07-2.95-12.22-6.91-24.76-6.63-36.58,1.25-11.38,7.58-16.52,18.59-16.1,32.18.17,5.63,1.94,10.53,7.78,12.62,5.63,2.01,9.35-1.22,12.95-4.99,9.38-9.82,9.37-9.71.48-19.47-2.37-2.6-5.68-4.58-6.55-8.75,7.15-3.8,11.17.94,14.64,5.6,4.31,5.78,7.81,5.72,12.12.08,2.38-3.12,5.26-6.05,8.44-8.33,9.52-6.83,24.1-1.51,27.38,9.73,5.11,17.53-3.16,38.45-19.16,48.48-16.22,10.16-37.8,8.22-51.58-4.66-1.39-1.3-3.33-2.39-2.36-4.86l-.15.18Z"/>
      <path class="cls-3" d="M177.27,191.28c0,5.03-.1,8.98.03,12.93.11,3.38-1.33,4.6-4.71,4.65-3.64.05-5.44-.88-5.4-4.94.15-14.52.11-29.05.02-43.57-.02-3.25,1.44-5.9,4.44-4.47,6.01,2.86,11.24-.23,16.84-.69,6.93-.56,12.4,2.67,14.82,9.26,3.19,8.7,3.6,17.59-2.51,25.36-4.36,5.54-10.51,6.44-17.05,4.57-1.84-.53-3.51-1.64-6.48-3.09ZM194.99,175.09c-.3-6.11-2.67-10.51-9.25-10.67-7.75-.18-8.58,4.94-8.61,11.31-.03,6.48,2.07,10.31,8.89,10,6.68-.3,8.69-4.89,8.96-10.64Z"/>
      <path class="cls-3" d="M255.71,175.3c0-2.98,0-5.96,0-8.94-.03-7.43-.8-15.7,10.7-8.14,1.99,1.31,3.46-1.17,5.21-1.78,12.43-4.36,19.37.31,19.54,13.31.09,6.62-.03,13.25.03,19.88.03,3.04-.63,5.03-4.35,5.05-3.61.02-5.66-.93-5.56-4.97.14-5.63.04-11.26,0-16.89-.04-4.8-1.27-8.72-7.19-8.41-5.46.29-8.56,3.04-8.53,8.79.03,5.3-.08,10.6.02,15.9.07,3.45-.65,5.62-4.88,5.61-4.08-.01-5.13-1.89-5.03-5.48.13-4.63.03-9.28.03-13.91Z"/>
      <path class="cls-3" d="M236.45,172.74c-.43-9.02-4.29-11.2-13.65-7.79-2.58.94-4.81,3.81-6.95-.87-2.01-4.4,1.35-5.25,3.71-6.56,14.55-8.05,27.68-.52,27.77,15.82.02,2.98.05,5.95,0,8.93-.14,7.34,2.22,17.38-11.31,10.26-1.07-.56-3.37,1.62-5.2,2.03-6.16,1.37-11.93.9-16.07-4.68-3.32-4.47-3.38-9.48-.59-13.92,3.65-5.8,9.6-6.43,15.83-5.08,2.15.47,4.25,1.21,6.47,1.86ZM229.67,177.2c-3.66.22-6.9,1.16-6.83,5.38.08,4.73,3.92,5.86,7.54,5.47,2.94-.31,6.92-.85,6.81-5.4-.12-5.04-4.07-5.05-7.52-5.45Z"/>
      <path class="cls-3" d="M358.74,195.21c-12.43-.09-20.11-7.05-20.82-17.88-.76-11.63,5.3-20.33,15.33-22.01,10.95-1.83,19.4,3.96,22.14,14.9,1.4,5.58.82,9-6.24,8.39-4.93-.43-9.92-.16-14.88-.04-1.81.05-4.48-.91-5.16,1.35-.78,2.56,1.66,4.09,3.56,5.32,3.28,2.14,6.92,2.14,10.49.92,3.48-1.19,7.67-3.2,8.73,2.06.99,4.89-4.26,5-7.37,6.19-2.09.8-4.55.65-5.77.8ZM348.46,170.4h17.59c-6.65-9.64-11.84-9.47-17.59,0Z"/>
      <path class="cls-3" d="M121.82,193.49c3.94-6.23,9.86-11.93,11.03-18.48,1.21-6.79-8.15-11.29-9.58-18.67q9.1-.82,17.43,10.17,8.72-10.94,20.08-10.25c-15.83,12.44-13.46,24.71-.46,36.45q-9.05,2.33-19.84-10.07c-5.23,4.85-6.55,15.86-18.65,10.86Z"/>
      <path class="cls-3" d="M315.08,155c1.58.19,3.77-.03,5.47.77,3.17,1.49,9.11,1.17,7.33,7-1.76,5.76-5.75,1.49-8.86.95-1.62-.28-3.28-.34-4.93-.41-2.04-.08-4.48.05-4.91,2.32-.6,3.18,2.42,3.3,4.52,3.95,3.15.98,6.35,1.8,9.46,2.88,4.46,1.54,7.1,4.51,7.43,9.45.35,5.27-1.8,9.11-6.48,11.19-7.73,3.44-15.38,2.88-22.83-1.2-2.99-1.64-3.33-3.5-1.66-6.43,1.56-2.75,3.09-2.99,5.43-1.13.75.6,1.74.98,2.68,1.24,4.37,1.23,10.74,3.97,12.24-1.2,1.62-5.58-5.56-4.74-9.26-5.76-6.88-1.89-13.17-4.51-11.72-13.09,1.43-8.44,8.16-10.41,16.09-10.52Z"/>
      <path class="cls-2" d="M30.04,202.89c-.36-.18-.71-.35-1.07-.53.18,0,.43-.08.51,0,.18.19.28.47.41.71,0,0,.15-.18.15-.18Z"/>
      <path class="cls-5" d="M194.99,175.09c-.26,5.75-2.28,10.34-8.96,10.64-6.82.31-8.92-3.52-8.89-10,.02-6.36.86-11.49,8.61-11.31,6.58.16,8.95,4.56,9.25,10.67Z"/>
      <path class="cls-5" d="M229.67,177.2c3.44.4,7.39.41,7.52,5.45.11,4.55-3.87,5.09-6.81,5.4-3.61.38-7.46-.75-7.54-5.47-.07-4.22,3.18-5.15,6.83-5.38Z"/>
      <path class="cls-5" d="M348.46,170.4c5.75-9.47,10.94-9.64,17.59,0h-17.59Z"/>
    </g>
    <g>
      <path class="cls-4" d="M722.65,280.82h-286.33V0c95.44,0,190.89,0,286.33,0v280.82ZM496.5,211.15c-.09-.06-.18-.12-.27-.17-.82.75-1.52.34-2.33-.11-1.44-.81-.38-1.66.13-2.8-.64.32-.93.58-1.24.6-.48.03-.97-.06-1.44-.17-.44-.1-.86-.29-1.29-.45v1.52c-.53-.67-.95-1.2-1.39-1.76-1.03.73-1.36.29-1.23-.5h-4.54c0,2.25,0,4.37,0,6.5,0,7.21,0,14.43,0,21.64,0,1.87,0,1.87,1.9,1.87,16.8-.07,33.6-.15,50.4-.22,5.83-.02,11.66,0,17.48,0,0-.12,0-.24,0-.36-4.48-.14-8.96-.28-13.45-.42,0-.05,0-.1,0-.15,6.45-.22,12.89-.44,19.34-.67,0-.18,0-.36,0-.53h-10.12c0-.14,0-.29,0-.43l14.71-.67c0-.11,0-.21,0-.32h-8.43c0-.12,0-.25,0-.37,17.4-.74,34.8-.87,52.2.4h-9.11c0,.1,0,.2,0,.3,5.58.25,11.16.5,16.74.74,0,.2,0,.4-.01.59h-10.16v.34c5.24.21,10.48.41,15.72.62,0,.05,0,.1,0,.16-4.13.17-8.26.34-12.39.51v.43c10.68,0,21.36,0,32.04,0,10.5,0,21-.03,31.5-.04.87,0,1.7.14,1.68-1.28-.11-8.85-.18-17.71-.12-26.56,0-1.13-.96-1.36-1.17-2.16-.23.08-.52.11-.68.26-.21.2-.31.51-.46.77-.25-.44-.46-.81-.59-1.06-.49.44-.83.84-1.25,1.13-.93.63-2.13,1.02-2.8,1.84-.98,1.2-1.41,1.1-1.91-.23-.06-.16-.32-.25-.66-.5-.05.7.07,1.29-.15,1.72-.57,1.13.17,2.98-1.79,3.35.26-.34.53-.67.83-1.05-.34-.27-.86-.48-.99-.84-.48-1.31-1.13-1-1.97-.3.98.45.52.96.12,1.47l.05-.06c-.25,1.14-.49,2.29-.77,3.58-.45-.93-1.51-2.13-1.91-1.27-.48,1.05-1.37,1.08-1.93,1.7-.49.53-1.21.85-1.84,1.26-.12-.09-.24-.18-.36-.27.09.51.17,1.02.25,1.46-.61.37-1.14.8-1.74,1.03-.62.23-1.32.26-2.03.39-.58,1.54-2.55,2.69-3.63,2.12-.74.71-1.47,1.41-2.2,2.11-.12-.11-.23-.21-.35-.32.13-.22.25-.45.38-.67l-.2-.26c-.58.31-1.17.63-1.75.94.14.07.29.14.43.2-.14.56-.29,1.12-.35,1.38h-3.21c-.03.16-.06.32-.09.47.5.13,1,.25,1.49.38,0,.04-.01.07-.02.11h-1.9c.04.39.07.63.09.8-.56,0-1.14-.16-1.55.03-1.32.62-2.58,1.37-3.9,2.09-.3-.62-.48-.99-.51-1.07-.83.32-1.53.6-2.21.87-.76-1.25-.77-1.28-2.01-.69-.82.39-1.6.87-2.65,1.46,0,.2,0,.69,0,1.17-.01,1.55-.21,1.69-1.89,1.22,0-.83,0-1.69,0-2.55-.03-5.73,2.22-10.11,7.45-12.78.24-.12.46-.54.46-.82-.01-3.51-.07-7.03-.1-10.54-.01-1.26,0-2.53,0-3.84h2.85v14.38c1.06.28,1.96.52,2.8.74,1.24-1.75,1.71-3.62,1.5-5.71-.11-1.09-.02-2.19-.02-3.29,0-2.04,0-4.08,0-6.13h3.2v8.84c.66-.55,1.09-1.17,1.64-1.32,2.97-.8,3.06-2.99,2.78-5.41-.02-.14,0-.27,0-.41q.02-1.8,1.83-1.84c.3,0,.61.05,1.03.08v5.47c1.41.22,2.69.41,4.13.63,0-1.68.04-3.32-.01-4.95-.03-.9.31-1.25,1.19-1.2.66.04,1.33,0,2.23,0,0,2.44.01,4.67,0,6.9,0,1.05.38,1.81,1.24,2.19.43-1.26.81-2.53,1.3-3.74.7-1.71,1.5-3.39,2.3-5.19h11.42v.48c-2.12.11-4.25.22-6.38.33,0,.12,0,.24,0,.35,1.92.16,3.84.32,5.87.48-1.02.07-1.93.12-2.84.19-.89.07-1.79.17-2.68.26.01.12.02.24.04.35h24.2c0-.13,0-.26.01-.39h-5.22c0-.16,0-.31,0-.47h6.7c0-.18.01-.35.02-.53-2.04-.21-4.09-.42-6.13-.62,0-.09,0-.18-.01-.27,1.73-.14,3.47-.29,5.2-.43,0-.12-.01-.24-.02-.35-1.73-.12-3.47-.23-5.2-.35l.03-.14c1.24-.11,2.48-.22,3.73-.34-.01-.2-.02-.4-.04-.6-2.82,0-5.65,0-8.47,0-.57,0-1.27.12-1.27-.81,0-1.53,0-3.07,0-4.67,3.04-.37,5.62-1.53,7.47-4.08,4.01-5.5,3.19-13.09-1.94-17.57-4.07-3.55-9.68-3.49-13.34.19-2.87,2.89-4.08,6.48-3.91,10.45.22,5.33,3.53,9.22,8.89,10.87.37.11.96.42.97.67.08,1.76.04,3.53.04,5.61h-11.93c-.1-1.71.15-3.56,1.6-5.16h-4.43v3.53h-3.01v-6.56h10.38c.05-.1.1-.2.16-.3-1.86-.68-1.61-3.52-4.08-3.54-.04-.58-.11-1.09-.09-1.58.16-3.2-.44-6.4.53-9.63.45-1.49-.11-3.31-.32-4.97-.06-.47-.49-.9-.75-1.34-.33.45-.86.87-.96,1.37-.19,1-.15,2.05-.24,3.52-1.14-1.13-1.96-2.03-2.86-2.81-.31-.27-.84-.28-1.28-.41-.07.45-.31.95-.18,1.33.69,2.11,2.05,3.73,3.84,5.02.28.2.76.65.72.71-.69,1.08.2,2.07.13,3.12-.09,1.41-.14,2.84-.03,4.24.12,1.46-.56,1.75-1.83,1.75-6.48-.02-12.96.02-19.45.03-3.46,0-6.93,0-10.39,0v-.42h25.96v-4.72c-7.25-.21-14.43-.41-21.62-.62,0-.15,0-.29,0-.44,6.85,0,13.69,0,20.54-.02.39,0,.78-.35,1.18-.54-.36-.21-.74-.61-1.09-.58-1.24.1-1.52-.41-1.52-1.58.05-10.09.03-20.18.04-30.27,0-.4.05-.8.08-1.27,2.51-.12,4.95-.24,7.4-.36v-2.26c-24.69-3.68-49.29-7.34-73.89-11.01-.09.53-.15.89-.26,1.52-3.31-3.87-6.49-7.5-9.57-11.2-4.72-5.68-9.4-11.39-14.05-17.12-6.38-7.86-12.72-15.74-19.09-23.61-1.4-1.73-2.8-3.44-4.24-5.21-1.81,2.67-3.6,5.19-5.26,7.78-4.82,7.51-9.6,15.05-14.39,22.59-3.25,5.12-6.43,10.3-9.73,15.39-3.37,5.18-6.86,10.29-10.34,15.5,1.51.18,3.05.36,4.59.54.02.13.04.25.05.38-.43.2-.85.41-1.28.61-4.19,1.89-8.38,3.77-12.56,5.68-.41.19-.98.58-1.02.92-.12,1.25-.05,2.51-.05,3.78h6.37v27.56h-2.87c0,2.56-.06,4.97.02,7.38.04,1.17-.43,1.55-1.5,1.52-1.23-.04-2.47-.05-3.7,0-.86.04-1.12-.37-1.11-1.14.04-2.82.06-5.65.07-8.47.01-2.37.04-4.75-.03-7.12-.01-.38-.54-.74-.83-1.11-.3.37-.7.7-.88,1.12-.15.35-.06.81-.04,1.22.11,4.15.27,8.29.31,12.44.01,1.21.57,2.82-1.4,3.25-.06.01-.1.14-.15.22-.7,1.04-1.41,2.07-2.21,3.24h7.3c-.12,2.3-.22,4.44-.34,6.7h-4.16c.08-.29.16-.59.25-.89-.45-.07-.82-.12-1.27-.19.05.4.09.75.14,1.18-.4-.19-.68-.33-.97-.47-.05.06-.09.12-.14.18.31.41.62.83.94,1.24.32-.27.64-.54.96-.8.08.42.17.85.21,1.05h-10.55v-5.45c2.27-1.19,4.56-1.94,6.27-3.37,5.51-4.6,4.78-12.07,1.37-16.84-3-4.2-7.59-5.8-11.68-3.93-4.34,1.98-7,5.44-7.75,10.19-.4,2.54-.14,5.11,1.3,7.26,2.08,3.11,4.59,5.81,8.68,6.15,0,1.3,0,2.47,0,3.65,0,1.82,0,1.78-1.76,1.83-2.19.07-4.38.21-6.56.33-.44.02-.87.09-1.31.13,0,.12.02.23.02.35,1.58.08,3.15.17,4.73.25,0,.09,0,.17,0,.26h-5.72c0,.13-.01.26-.02.39,2.18.25,4.36.49,6.54.74,0,.03,0,.06-.01.09-1.95.11-3.89.21-5.84.32,0,.15,0,.3,0,.45,1.51.13,3.01.25,4.52.38,0,.06,0,.12,0,.18-1.36.07-2.72.13-4.09.2v.37h21.53c0-.13,0-.26,0-.38h-4.7c1.14-.29,2.27-.39,3.41-.48,1.06-.08,2.13-.15,3.19-.22,0-.16-.02-.32-.03-.48-2.13-.18-4.26-.36-6.38-.54,0-.12,0-.25.01-.37h16.04c.44,2.87.87,5.7,1.33,8.69.9-.66,1.5-1.27,2.23-1.6,1-.45,1.24-1.12,1.19-2.15-.08-1.66-.02-3.34-.02-5.01h2.99v5.45h4.62v-5.37h2.71c0,1.93-.01,3.75.01,5.56,0,.33.05.79.27.97,1.26,1.07,2.57,2.07,3.97,3.18v-9.72h3.04v12.89c1.53.17,2.92.32,4.46.49v-13.4h2.62c0,4.12.05,8.14-.02,12.15-.03,1.73.26,2.97,1.74,4.28,4.24,3.74,4.86,8.82,4.43,14.13-1.06.46-1.62.25-1.59-.97.02-.64-.06-1.29-.09-1.93-.07.07-.15.13-.22.2-.43-.58-.85-1.15-1.3-1.75-1.47.08-3.2.18-4.92.28-.03-.12-.06-.23-.09-.35-.28.42-.57.84-.98,1.45-.26-.88-.47-1.58-.72-2.46-1.8,1.2-3.04-.66-4.64-.81-.38-1.94-2.46-1.15-3.5-2.18-.92-.92-2.35-1.3-3.42-2.1-1.75-1.31-3.46-1.75-5.36-.37-.25.18-.57.26-.78.35-.21-.66-.26-1.37-.61-1.88-1.07-1.57-2.53-2.67-4.38-3.27-1.17-.38-1.22-1.19-.43-1.83-.35-.56-.69-1.09-1.1-1.73-.39.86-.78,1.69-1.3,2.84-.19-.74-.46-1.18-.35-1.49.34-1.01-.15-1.65-.77-2.3-.34-.36-.63-.78-.94-1.17-.37-.45-.74-.9-1.11-1.35ZM543.17,77.32c.48.54.84.93,1.18,1.35,3.25,3.98,6.52,7.96,9.75,11.96,4.64,5.74,9.23,11.52,13.87,17.26,5.16,6.38,10.35,12.72,15.52,19.09,1.9,2.34,3.77,4.7,5.64,7.06.79,1,1.65,1.73,3.04,1.77,1.27.03,2.53.29,3.79.48,12.22,1.83,24.44,3.68,36.66,5.51,9.56,1.43,19.12,2.85,28.69,4.26,1.54.23,3.08.39,4.63.59.06-.13.11-.26.17-.38-.43-.57-.84-1.16-1.3-1.7-4.2-4.86-8.43-9.69-12.61-14.57-5.05-5.88-10.06-11.78-15.09-17.68-4-4.69-7.91-9.46-12.02-14.04-1.43-1.59-2.73-3.56-5.2-3.92-.3-.04-.67-.67-.73-1.06-.12-.85-.15-1.74-.04-2.59.19-1.62.43-3.24.78-4.82.3-1.36-.04-2.1-1.39-2.47-1.58-.43-3.17-.84-4.74-1.32-2.83-.87-5.66-1.29-8.59-.46-1.4.39-2.86.57-4.3.82-1.29.22-2.24,1.76-1.44,2.7.99,1.16.38,2.26.58,3.44-.36-.03-.54-.02-.71-.06-11.07-2.65-22.15-5.3-33.22-7.96-7.67-1.84-15.33-3.7-23-5.5-.4-.09-1.09.1-1.32.4-1.29,1.75-2.54,3.54-3.71,5.37-4.74,7.46-9.44,14.94-14.16,22.41-4.77,7.55-9.55,15.09-14.29,22.65-3.08,4.91-6.08,9.86-9.12,14.8-.2.32-.35.68-.54,1.07,2.35.28,2.64.2,3.19-.7,2.62-4.26,5.22-8.53,7.87-12.77,4.9-7.84,9.82-15.66,14.74-23.49,5.26-8.37,10.52-16.74,15.79-25.11.48-.76,1.01-1.48,1.63-2.37ZM482.43,157.87s.03.03.05.04v-13.38s-.03,0-.05,0v13.34ZM482.48,46.24s-.04-.02-.06-.04v10.09s.04,0,.06,0v-10.05ZM668.99,200.72c.05.15.09.29.14.44,1.14-.2,2.28-.39,3.42-.59-.02-.07-.03-.15-.05-.22l-3.51.37Z"/>
      <path class="cls-1" d="M488.2,200.66h4.16c.11-2.26.22-4.4.34-6.7h-7.3c.8-1.17,1.5-2.21,2.21-3.24.05-.08.09-.2.15-.22,1.98-.43,1.41-2.04,1.4-3.25-.04-4.15-.2-8.29-.31-12.44-.01-.41-.1-.87.04-1.22.18-.42.58-.75.88-1.12.29.37.82.73.83,1.11.08,2.37.04,4.75.03,7.12-.01,2.82-.04,5.65-.07,8.47,0,.78.25,1.18,1.11,1.14,1.23-.05,2.47-.04,3.7,0,1.08.03,1.54-.35,1.5-1.52-.08-2.41-.02-4.82-.02-7.38h2.87v-27.56h-6.37c0-1.27-.07-2.53.05-3.78.03-.34.61-.73,1.02-.92,4.18-1.92,8.37-3.79,12.56-5.68.43-.19.85-.41,1.28-.61-.02-.13-.04-.25-.05-.38-1.54-.18-3.08-.37-4.59-.54,3.48-5.21,6.97-10.32,10.34-15.5,3.31-5.09,6.48-10.26,9.73-15.39,4.78-7.54,9.56-15.08,14.39-22.59,1.66-2.59,3.45-5.11,5.26-7.78,1.44,1.77,2.85,3.48,4.24,5.21,6.36,7.87,12.7,15.76,19.09,23.61,4.65,5.73,9.33,11.44,14.05,17.12,3.08,3.7,6.25,7.33,9.57,11.2.11-.63.17-.99.26-1.52,24.6,3.67,49.2,7.33,73.89,11.01v2.26c-2.45.12-4.89.23-7.4.36-.03.47-.08.87-.08,1.27,0,10.09,0,20.18-.04,30.27,0,1.18.28,1.68,1.52,1.58.35-.03.72.38,1.09.58-.39.19-.78.54-1.18.54-6.85.03-13.69.02-20.54.02,0,.15,0,.29,0,.44,7.18.21,14.37.41,21.62.62v4.72h-25.96v.42c3.46,0,6.93,0,10.39,0,6.48-.01,12.97-.05,19.45-.03,1.27,0,1.95-.29,1.83-1.75-.11-1.41-.07-2.83.03-4.24.07-1.04-.82-2.03-.13-3.12.04-.06-.44-.51-.72-.71-1.79-1.29-3.15-2.91-3.84-5.02-.12-.38.11-.88.18-1.33.43.13.97.14,1.28.41.91.79,1.73,1.68,2.86,2.81.08-1.48.04-2.52.24-3.52.1-.5.62-.91.96-1.37.26.45.69.87.75,1.34.21,1.66.77,3.47.32,4.97-.97,3.23-.37,6.43-.53,9.63-.02.5.05,1,.09,1.58,2.47.03,2.22,2.86,4.08,3.54-.05.1-.1.2-.16.3h-10.38v6.56h3.01v-3.53h4.43c-1.45,1.6-1.69,3.46-1.6,5.16h11.93c0-2.08.04-3.85-.04-5.61-.01-.24-.6-.55-.97-.67-5.36-1.65-8.67-5.54-8.89-10.87-.17-3.98,1.05-7.57,3.91-10.45,3.65-3.68,9.27-3.74,13.34-.19,5.13,4.48,5.95,12.07,1.94,17.57-1.85,2.54-4.42,3.71-7.47,4.08,0,1.6,0,3.13,0,4.67,0,.93.69.81,1.27.81,2.82,0,5.65,0,8.47,0,.01.2.02.4.04.6-1.24.11-2.48.22-3.73.34l-.03.14c1.73.12,3.47.23,5.2.35,0,.12.01.24.02.35-1.73.14-3.47.29-5.2.43,0,.09,0,.18.01.27,2.04.21,4.09.42,6.13.62,0,.18-.01.35-.02.53h-6.7c0,.16,0,.31,0,.47h5.22c0,.13,0,.26-.01.39h-24.2c-.01-.12-.02-.24-.04-.35.89-.09,1.78-.19,2.68-.26.91-.07,1.82-.13,2.84-.19-2.04-.17-3.95-.33-5.87-.48,0-.12,0-.24,0-.35,2.13-.11,4.27-.22,6.4-.33v-.48h-11.44c-.8,1.8-1.6,3.47-2.3,5.19-.5,1.21-.87,2.48-1.3,3.74-.85-.37-1.24-1.13-1.24-2.19.02-2.23,0-4.46,0-6.9-.9,0-1.57.03-2.23,0-.88-.05-1.22.31-1.19,1.2.05,1.63.01,3.27.01,4.95-1.43-.22-2.71-.42-4.13-.63v-5.47c-.43-.04-.73-.09-1.03-.08q-1.81.03-1.83,1.84c0,.14-.02.28,0,.41.28,2.42.18,4.61-2.78,5.41-.55.15-.98.77-1.64,1.32v-8.84h-3.2c0,2.05,0,4.09,0,6.13,0,1.1-.08,2.2.02,3.29.2,2.08-.26,3.96-1.5,5.71-.84-.22-1.74-.46-2.8-.74v-14.38h-2.85c0,1.31-.01,2.58,0,3.84.04,3.51.09,7.03.1,10.54,0,.28-.22.7-.46.82-5.23,2.67-7.48,7.05-7.45,12.78,0,.86,0,1.72,0,2.55,1.68.47,1.88.33,1.89-1.22,0-.49,0-.97,0-1.17,1.05-.58,1.83-1.07,2.65-1.46,1.24-.59,1.25-.56,2.01.69.68-.27,1.39-.54,2.21-.87.04.08.22.46.51,1.07,1.32-.72,2.58-1.47,3.9-2.09.41-.19.98-.03,1.55-.03-.02-.16-.04-.41-.09-.8h1.9s.01-.07.02-.11c-.5-.13-1-.25-1.49-.38.03-.16.06-.32.09-.47h3.21c.07-.26.21-.82.35-1.38-.14-.07-.29-.14-.43-.2.58-.31,1.17-.63,1.75-.94l.2.26c-.13.22-.25.45-.38.67.12.11.23.21.35.32.73-.7,1.46-1.4,2.2-2.11,1.08.57,3.05-.58,3.63-2.12.71-.13,1.41-.16,2.03-.39.6-.22,1.13-.66,1.74-1.03-.08-.44-.16-.95-.25-1.46.12.09.24.18.36.27.62-.41,1.35-.72,1.84-1.26.57-.62,1.45-.66,1.93-1.7.4-.86,1.46.34,1.91,1.27.28-1.29.52-2.43.77-3.58.17.17.34.33.5.5.15.11.29.21.44.32.34-.01.68-.03,1.02-.04,1.97-.37,1.22-2.22,1.79-3.35.22-.43.1-1.02.15-1.72.34.25.6.34.66.5.5,1.34.93,1.44,1.91.23.67-.83,1.87-1.21,2.8-1.84.42-.29.77-.68,1.25-1.13.14.24.34.62.59,1.06.15-.26.25-.57.46-.77.16-.16.45-.18.68-.26.21.8,1.17,1.02,1.17,2.16-.05,8.85.02,17.71.12,26.56.02,1.42-.81,1.28-1.68,1.28-10.5.02-21,.04-31.5.04-10.68,0-21.36,0-32.04,0v-.43c4.13-.17,8.26-.34,12.39-.51,0-.05,0-.1,0-.16-5.24-.21-10.47-.41-15.71-.62v-.34h10.15c0-.2,0-.4.01-.59-5.58-.25-11.16-.5-16.74-.74,0-.1,0-.2,0-.3h9.11c-17.4-1.27-34.8-1.14-52.2-.4,0,.12,0,.25,0,.37h8.43c0,.11,0,.21,0,.32l-14.71.67c0,.14,0,.29,0,.43h10.12c0,.18,0,.36,0,.53-6.45.22-12.89.44-19.34.67,0,.05,0,.1,0,.15,4.48.14,8.96.28,13.45.42,0,.12,0,.24,0,.36-5.83,0-11.66-.02-17.48,0-16.8.06-33.6.14-50.4.22-1.89,0-1.9,0-1.9-1.87,0-7.21,0-14.43,0-21.64,0-2.12,0-4.25,0-6.5h4.54c-.13.79.2,1.23,1.23.5.44.56.86,1.09,1.39,1.76v-1.52c.43.15.85.34,1.29.45.47.11.97.2,1.44.17.31-.02.6-.28,1.24-.6-.51,1.14-1.57,1.99-.13,2.8.81.46,1.51.86,2.33.11.1.07.2.14.3.21-.1.73-.2,1.46-.31,2.25.93.14,1.57.16,1.39-.93.31.39.59.81.94,1.17.63.65,1.11,1.29.77,2.3-.1.31.16.75.35,1.49.53-1.15.91-1.98,1.3-2.84.41.65.74,1.18,1.1,1.73-.79.64-.74,1.45.43,1.83,1.85.6,3.31,1.7,4.38,3.27.35.51.41,1.22.61,1.88.21-.09.53-.17.78-.35,1.9-1.38,3.61-.94,5.36.37,1.07.8,2.5,1.18,3.42,2.1,1.04,1.04,3.12.25,3.5,2.18,1.6.16,2.84,2.01,4.64.81.26.88.46,1.58.72,2.46.41-.61.7-1.03.98-1.45.03.12.06.23.09.35,1.73-.1,3.45-.2,4.92-.28.44.6.87,1.17,1.3,1.75.07-.07.15-.13.22-.2.03.64.11,1.29.09,1.93-.03,1.22.53,1.42,1.59.97.43-5.31-.18-10.39-4.43-14.13-1.48-1.3-1.77-2.55-1.74-4.28.07-4.01.02-8.03.02-12.15h-2.62v13.4c-1.55-.17-2.93-.32-4.46-.49v-12.89h-3.04v9.72c-1.4-1.11-2.71-2.11-3.97-3.18-.21-.18-.26-.64-.27-.97-.02-1.82-.01-3.64-.01-5.56h-2.71v5.37h-4.62v-5.45h-2.99c0,1.67-.06,3.34.02,5.01.05,1.02-.19,1.69-1.19,2.15-.73.33-1.33.94-2.23,1.6-.46-2.99-.89-5.82-1.33-8.69h-16.04c0,.12,0,.25-.01.37,2.13.18,4.26.36,6.38.54,0,.16.02.32.03.48-1.06.07-2.13.14-3.19.22-1.13.09-2.27.19-3.41.48h4.7c0,.13,0,.26,0,.38h-21.52v-.37c1.35-.07,2.71-.13,4.07-.2,0-.06,0-.12,0-.18-1.51-.13-3.01-.25-4.52-.38,0-.15,0-.3,0-.45,1.95-.11,3.89-.21,5.84-.32,0-.03,0-.06.01-.09-2.18-.25-4.36-.49-6.54-.74,0-.13.01-.26.02-.39h5.72c0-.09,0-.17,0-.26-1.58-.08-3.15-.17-4.73-.25,0-.12-.02-.23-.02-.35.44-.04.87-.11,1.31-.13,2.19-.12,4.37-.26,6.56-.33,1.76-.05,1.76,0,1.76-1.83,0-1.18,0-2.36,0-3.65-4.09-.34-6.6-3.04-8.68-6.15-1.44-2.15-1.7-4.73-1.3-7.26.75-4.75,3.41-8.21,7.75-10.19,4.09-1.86,8.68-.26,11.68,3.93,3.41,4.77,4.14,12.23-1.37,16.84-1.72,1.43-4.01,2.18-6.27,3.37v5.45h10.55c-.04-.21-.12-.63-.21-1.05.03-.08.06-.17.09-.25ZM557.63,132.95c-.02.12-.05.24-.07.37.93.24,1.87.47,2.8.71,1.48.4,3.1.55,4.4,1.28,1.31.73,2.32,2,3.42,3.09,4.84,4.82,9.66,9.66,14.48,14.5.27.27.51.57.77.87-2.57.12-5.02.26-7.47.32-1.2.03-1.63.47-1.63,1.72.02,5.48-.11,10.96-.06,16.43.01,1.46-.48,1.76-1.81,1.73-3.29-.07-6.58-.04-9.86.05-1.22.03-1.6-.39-1.59-1.57.02-4.2-.03-8.4-.06-12.6,0-.44-.04-.88-.07-1.37-1.15.21-1.14,1-1.14,1.78,0,6.53-.02,13.06-.02,19.58,0,.35.07.7.13,1.19.61,0,1.15,0,1.68,0,8.54-.02,17.08-.03,25.61-.04,1.79,0,1.89-.04,1.9-1.8.03-5.4.02-10.8,0-16.19-.01-2.52-.16-5.03-.15-7.55.02-4.27.15-8.54.16-12.81,0-.58-.21-1.27-.57-1.71-2.54-3.15-5.18-6.22-7.73-9.37-5.1-6.31-10.16-12.65-15.24-18.97-5.63-6.99-11.27-13.98-16.91-20.96-1-1.24-3.6-1.83-5.02-1.14-.23.11-.34.45-.65.9h4.61c0,.11.01.23.02.34-1,.09-2.01.29-3.01.24-1.31-.08-2.33.13-2.83,1.84h3.93c-1.56,1.5-4.22-.44-5.58,2.16.95.05,1.64.09,2.33.13.04.13.09.27.13.4-1.54.24-3.3.04-4.12,1.73.25.2.51.42.69.56-.73.49-1.77.83-1.91,1.39-.19.75-.5,1.12-1.06,1.5-.25.17-.34.57-.64,1.12h3.88c0,.16,0,.33-.01.49-.84,0-1.68-.06-2.51.02-.71.07-1.44.23-2.07.54-.18.09-.03.85-.03,1.02-.72.68-1.34,1.26-2.1,1.97,1.58.16,2.8.29,4.02.41-1.28.38-2.56.45-3.81.69-.47.09-.96.52-1.27.92-.47.63-.78,1.37-1.16,2.05.22.38.46.81.71,1.25-.09.05-.18.11-.28.16-.1-.24-.19-.49-.24-.6-.63.58-1.19,1.09-1.8,1.65.72.32,1.23.55,1.74.78-1.34.03-2.69.69-3.02,1.63.9.04,1.81.08,3.07.14-1.56,1.21-3.39.29-4.66,1.79,1.28.08,2.27.15,3.66.24-1.48,1.59-3.62.26-5.05,1.82,2.67.12,5.04.23,7.4.34.01.12.02.24.03.37-.44.08-.88.21-1.32.23-2.05.13-4.1.2-6.14.37-.44.04-.85.38-1.28.58.06.2.11.4.17.6h7.64c0,.12.01.25.02.37-.2.07-.4.19-.6.2-2.36.15-4.73.27-7.09.45-.48.04-.94.29-1.41.44.04.22.08.45.11.67h10.74c0,.14,0,.28,0,.41-.31.03-.61.07-.92.08-3.27.21-6.54.4-9.81.63-.5.04-.98.27-1.47.42.03.22.06.44.1.65h12.3c0,.13,0,.26,0,.4-.27.03-.54.08-.81.09-3.78.2-7.57.38-11.35.6-.49.03-.96.28-1.45.42.03.23.07.46.1.69h12.83c0,.14,0,.29,0,.43-.36.02-.71.04-1.07.06-3.87.18-7.75.34-11.62.56-.54.03-1.07.34-1.61.53.05.2.09.39.14.59h12.1c0,.13.01.26.02.39-.42.04-.85.1-1.27.12-3.6.19-7.2.37-10.8.58-.45.03-.88.25-1.32.38.03.15.06.3.08.46l10.26.39c0,.12,0,.24-.01.36-.31.04-.61.1-.92.12-3.09.19-6.19.36-9.28.57-.5.03-.99.25-1.48.39.03.14.06.27.09.41.39.05.78.12,1.17.13,2.14.07,4.29.16,6.43.16.87,0,1.82-.02,2.59-.36,3.91-1.75,7.76-3.63,11.65-5.41.5-.23,1.14-.35,1.68-.27,1.44.23,2.84.66,4.28.91,4.29.74,8.53,1.98,12.99,1.18,2.33-.42,4.76-.37,7.05-.9,1.95-.45,3.19.28,4.38,1.55,6.75,7.18,13.51,14.36,20.3,21.59-.38.05-.9-.02-.98.14-.88,1.66-1.79.14-2.17-.2-2.56-2.38-4.99-4.91-7.45-7.41-3.9-3.96-7.78-7.93-11.71-11.86-.37-.37-1-.58-1.54-.66-1.21-.2-2.44-.27-3.65-.4-1.01-.11-2.02-.22-3.02-.34ZM610.61,196.02h-62.38c-.05-.98-.09-1.87-.14-2.74q-1.82-.26-1.8,1.4c0,.55-.02,1.1.03,1.64.12,1.27.1,2.41-1.7,2.18v7.53h2.08v-7.74c1.43.52,2.67.97,3.9,1.42,4.14,1.52,8.37,2.43,12.83,2.39,10.96-.1,21.92-.05,32.88-.08,1.32,0,2.68,0,3.94-.32,3.21-.83,6.38-1.85,9.56-2.8,1.8-.53,2.12-.3,2.13,1.53,0,1.86,0,3.72,0,5.61h1.83v-7.47c-.61-.05-1.13-.1-1.8-.16v-5.72c-.54.05-.92.08-1.37.13v3.2ZM534.01,163.89c.02-.15.05-.3.07-.45-4.13-1.62-8.64-.56-12.84-1.77,2.3-.12,4.6-.25,6.98-.38-2.4-2.1-5.52-.79-8-2.04,1.79-.23,3.64-.47,5.49-.71,0-.05-.01-.1-.02-.15-2.1-.43-4.19-.85-6.29-1.28v-.33c.91-.07,1.83-.13,2.74-.2.03-.16.05-.32.08-.48-1.13-.53-2.23-1.17-3.41-1.56-1.05-.35-1.66,0-1.62,1.34.08,3.6.09,7.21,0,10.82-.04,1.34.47,1.59,1.65,1.58,4.61-.03,9.22,0,13.83.04.53,0,1.05.11,1.58.16-1.67.39-3.3.49-4.93.53-3.65.09-7.3.13-10.95.25-.37.01-.73.46-1.09.71.38.2.75.57,1.14.58,2.74.08,5.48.05,8.22.12,2.33.06,4.65.22,6.98.34-.57.38-1.14.47-1.71.49-4.38.09-8.76.16-13.14.28-.5.01-.98.35-1.47.54.51.16,1.01.45,1.52.47,2.74.07,5.48.04,8.22.11,2.21.06,4.41.2,6.62.31-.45.37-.91.46-1.38.47-4.47.13-8.94.22-13.41.39-.53.02-1.04.42-1.56.64.49.18.97.49,1.47.51,4.83.15,9.67.25,14.51.37.44.01.88.12,1.31.18-.01.15-.02.29-.04.44-5.71.33-11.42.67-17.13,1,0,.05,0,.1-.01.15,4.66.15,9.32.3,13.98.45l.14.38c-.49.23-.97.64-1.47.68-3.64.26-7.28.45-10.93.67-.49.03-.97.1-1.45.15.01.17.02.33.04.5h20.27c0-3.88-.05-7.85.03-11.81.02-1.25-.43-1.53-1.59-1.54-4.83-.03-9.67-.15-14.5-.24-.41,0-.82-.06-1.23-.09.68-.34,1.34-.43,2.01-.44,4.7-.03,9.4-.02,14.1-.08.41,0,.82-.44,1.22-.67-.4-.23-.79-.66-1.2-.67-3.51-.05-7.02,0-10.53-.05-1.46-.02-2.91-.17-4.37-.27,0-.15,0-.3.01-.46h12.09ZM504.03,181.3h8.96v-27.1c-3.08-.26-5.99-.51-8.96-.76v27.86ZM548.32,189.41h-48.77v3.47c.79-.14,1.4-.29,2.01-.36.66-.07,1.46-.29,1.98-.02,1.93,1.02,3.7.8,5.58-.1.49-.23,1.38-.19,1.81.12,1.8,1.28,3.76,1.3,5.56-.05.27-.21.86-.3,1.13-.14.56.34.94,1.03,1.52,1.28.57.24,1.3.12,1.96.15,0,.06,0,.12,0,.17h-2.19v6.56h2.9c0-1.81,0-3.54,0-5.26,0-.87,2.03-3.15,2.83-3.13.3.01.67.26.89.51,1.43,1.64,3.62,1.56,5.05-.14.26-.31.85-.46,1.29-.47,4.84-.08,9.68-.13,14.52-.18,2.09-.02,2.21-.16,1.94-2.4ZM495.32,152.22c.72-.26,1.42-.47,2.08-.77,4.61-2.08,9.22-4.15,13.81-6.26,8.86-4.07,17.72-8.16,26.56-12.27.85-.4,1.48-.35,2.26.18,7.18,4.84,14.38,9.65,21.59,14.47,1.13.75,2.14,1.61,3.71,1.5,1.3-.09,2.63.31,3.9.49-1.51-.53-3.22-.79-4.54-1.65-5.83-3.81-11.54-7.82-17.31-11.72-2.45-1.66-4.92-3.3-7.46-4.83-.56-.34-1.55-.45-2.13-.19-9.88,4.46-19.73,9-29.58,13.53-3.85,1.77-7.67,3.61-11.55,5.3-1.04.45-1.83.78-1.33,2.23ZM504.87,185.45c-.19,2.15.06,2.44,1.99,2.44,5.62.02,11.23.09,16.85.02,4.23-.06,8.45-.41,12.68-.45,4.61-.04,9.21.12,13.82.21,1,.02,1.74-.19,1.71-1.39-.04-1.28-1.04-.79-1.64-.79-13.24-.03-26.48-.03-39.72-.04-1.87,0-3.73,0-5.7,0ZM582.99,229.3v-25.63h-3.28v25.63h3.28ZM567.1,203.66v25.58h3.11v-25.58h-3.11ZM587.2,229.29v-25.58h-3.14v25.58h3.14ZM591.27,229.31v-25.63h-2.97v25.63h2.97ZM604.11,202.61v26.76h2.88v-27.1c-1,.12-1.89.22-2.88.34ZM578.59,229.3v-25.62h-3.05v25.62h3.05ZM571.4,203.64v25.62h2.98v-25.62h-2.98ZM592.41,203.66v25.64h2.75v-25.64h-2.75ZM603.07,203.12c-2.6-.13-2.74,0-2.75,2.4-.02,5.57-.04,11.14-.06,16.71,0,2.36,0,4.72,0,7.12h2.81v-26.23ZM538.43,146.63c-1.9-2.23-3.46-4.05-5.12-6,1.56-.98,2.96-1.86,4.35-2.74-.04-.07-.09-.14-.13-.21-8.03,3.96-16.06,7.92-24.09,11.87.07.17.14.34.21.51.43-.14.89-.24,1.29-.44,5.4-2.65,10.81-5.3,16.19-7.99.88-.44,1.46-.43,2.1.41,1.1,1.45,2.3,2.83,3.46,4.24.41.5.84.98,1.5,1.76-5.34.34-10.26.66-15.19.97,0,.14.02.28.02.42,10.95-.37,21.9-.75,33.22-1.13-1.33-.77-2.34-1.36-3.34-1.94l-.1.19c.2.23.41.46.77.88-4.91.16-9.56.31-14.43.47.25-.64.32-.9.46-1.13,1.04-1.72,2.11-3.42,3.12-5.15.14-.23.01-.62,0-.93-.31.11-.73.14-.9.36-.41.54-.7,1.17-1.05,1.76-.74,1.21-1.5,2.41-2.37,3.82ZM599.11,229.34v-25.68c-2.62-.23-2.64-.22-2.64,1.23.01,7.76.03,15.52.06,23.28,0,.39.06.78.09,1.17h2.49ZM515.72,183.47h41.43v-1.43h-41.43v1.43ZM565.89,229.29v-25.6h-2.3v25.6h2.3ZM607.65,163.03c0,3.59,0,7.01,0,10.42,0,3.29.01,3.25,3.25,3.21.92-.01,1.17-.32,1.16-1.19-.04-3.79-.02-7.58-.03-11.37,0-.26-.08-.52-.13-.83-1.37-.08-2.68-.16-4.25-.25ZM606.37,231.44c-7.08-.96-47.86-.74-52.12.24,10.37.98,47.51.87,52.12-.24ZM544.67,209.08v22.45h1.97v-22.45h-1.97ZM613,163.32v13.34c.84,0,1.52-.06,2.19.01,1.07.12,1.43-.26,1.41-1.36-.07-3.56-.04-7.11-.06-10.67,0-.34-.08-.69-.13-1.08-1.18-.08-2.27-.16-3.4-.24ZM623.77,203.39v17.25c1.53-.48,2.7-1.93,2.7-3.33,0-4.24-.02-8.47-.03-12.71,0-.39-.06-.79-.09-1.21h-2.58ZM640.67,165.11c-1.23-.1-2.42-.21-3.65-.31v11.72h3.65v-11.41ZM612.11,209.14v22.42h1.68v-22.42h-1.68ZM632.57,164.66v11.88h3.45v-11.68c-1.16-.07-2.23-.13-3.45-.2ZM623.33,196.89c.32-1.14-.1-1.51-1.13-1.5-2.22.04-4.45.01-6.67.01,0-.13,0-.26,0-.4,2.18,0,4.37.01,6.55,0,1.71-.01,1.86-.23,1.44-1.92h-10.06v3.81h9.87ZM544.9,193.14h-10.64v3.83c3.37,0,6.64.02,9.91-.03.25,0,.67-.47.7-.74.09-.98.03-1.98.03-3.05ZM568.71,163.02c0,2.58-.02,4.98.03,7.38,0,.24.39.65.62.67,1.07.07,2.14.03,3.22.03v-8.08h-3.87ZM557.78,150.58c-.13,0-.25.02-.38.02-.06.24-.16.48-.16.73-.05,9.57-.1,19.13-.11,28.7,0,.32.37.65.57.97.18-.34.53-.69.53-1.03-.06-9.47-.14-18.95-.24-28.42,0-.32-.14-.65-.21-.97ZM611.97,154.95c-1.43-.09-2.75-.18-4.17-.27v7.54c1.43.09,2.77.17,4.17.26v-7.53ZM567.81,171.1v-7.97h-3.79c0,2.52-.02,4.92.03,7.32,0,.22.42.6.67.62.99.07,1.98.03,3.09.03ZM555.76,151.66c-.17,0-.34,0-.51,0-.08.75-.22,1.51-.22,2.26-.03,8.62-.04,17.23-.02,25.85,0,.37.29.73.44,1.1.19-.38.53-.76.53-1.14.03-8.16.03-16.32.01-24.48,0-1.19-.15-2.39-.24-3.58ZM539.66,180.49c1.21.42,1.09-.38,1.09-1.05-.02-7.84-.03-15.68-.08-23.52,0-.44-.33-.88-.51-1.32-.2.44-.41.87-.59,1.31-.05.12-.02.27-.02.41.01,7.79.02,15.59.04,23.38,0,.26.04.53.07.79ZM567.73,154.82c-1.07,0-2.02-.06-2.95.04-.26.03-.67.5-.67.77-.06,2.17-.03,4.34-.03,6.55h3.65v-7.36ZM618.13,187.49c12.44.55,40.1.54,40.81.02-.9-.58-33.7-.62-40.81-.02ZM616.43,162.77v-7.43c-1.19-.1-2.27-.2-3.46-.3v7.46c1.13.09,2.25.17,3.46.27ZM572.55,154.71h-3.61v7.38h3.61v-7.38ZM501.65,155.1c-.12-.02-.24-.03-.36-.05-.06.43-.18.85-.18,1.28-.03,7.98-.05,15.96-.04,23.94,0,.34.36.68.55,1.02.16-.32.46-.65.46-.97-.08-8.2-.18-16.4-.29-24.59,0-.21-.09-.42-.13-.63ZM640.56,157.11c-1.26-.06-2.33-.11-3.52-.17v7.11c1.25.08,2.4.15,3.52.21v-7.15ZM615.28,231.39c.19,0,.37,0,.56,0,.06-1.3.17-2.6.18-3.91.06-7.07.11-14.15.14-21.22.01-1.96,0-3.93-.04-5.89,0-.29-.27-.58-.42-.87-.19.29-.43.57-.55.88-.09.24-.03.54-.03.82.05,8.03.1,16.06.15,24.09.01,2.03,0,4.05,0,6.08ZM635.97,163.95c0-2.25.02-4.34-.03-6.42,0-.25-.38-.67-.62-.69-.88-.08-1.78-.03-2.74-.03v6.98c1.16.06,2.24.11,3.38.16ZM652.26,193.99c.1,1.47.24,2.83.26,4.2.02,2,.02,2.92,3.42,2.07v-6.27h-3.68ZM637.95,194v6.49h3.25v-6.49h-3.25ZM551.74,229.2c.16.02.32.05.48.07.07-.36.2-.72.2-1.07.02-8.16.02-16.32,0-24.48,0-.35-.22-.7-.33-1.06-.12.03-.24.06-.35.08v26.46ZM535.48,221.94c.06-.39.12-.6.12-.81.1-7.06.2-14.12.27-21.18,0-.29-.36-.58-.55-.87-.19.29-.55.58-.54.86.13,7.23.3,14.46.46,21.69,0,.04.05.07.23.3ZM496.73,193.82v6.61c.64.04,1.04.09,1.43.1,1.85.02,1.83.02,1.79-1.88-.03-1.63,0-3.26,0-4.82h-3.22ZM558.05,229.59c.95-1.43.86-25.3,0-26.07v26.07ZM561.21,203.66c-.57,2.26-.25,25.05.32,25.58.57-1.61.37-24.76-.32-25.58ZM507.29,200.47v-6.5h-2.96v6.5h2.96ZM645.29,193.96c.15,2.22.29,4.37.44,6.55h2.8v-6.55h-3.23ZM514.72,193.75c-.66,0-1.41-.07-2.14.04-.28.04-.7.48-.71.75-.06,1.98-.03,3.97-.03,5.94h2.88v-6.73ZM633.62,200.48v-6.48h-2.78v6.48h2.78ZM533.55,220.05l.48-.11c.02-.3.05-.61.05-.91,0-4.84,0-9.67-.03-14.51,0-.4-.3-.8-.47-1.2-.18.4-.5.79-.51,1.19-.05,4.47-.06,8.94-.03,13.42,0,.71.32,1.42.5,2.13ZM526.38,193.94v6.49h2.58v-6.49h-2.58ZM555,229.22c.2,0,.4,0,.61,0-.05-8.71.07-17.42-.11-26.13-.17,0-.33,0-.5,0v26.12ZM514.88,177.29c.88-7.7.67-22.16,0-22.81v22.81ZM542.62,199.27v25.73c.93-12.51.85-24.91,0-25.73ZM548.39,229.5c.1,0,.21-.02.31-.03v-28.54c-.1,0-.21,0-.31,0v28.56ZM626.47,193.82c-1.03-.12-1.05-.12-1.07.9-.02,1.21,0,2.42,0,3.61-1.85.23-1.92.35-1.48,2.19h2.56v-6.69ZM624.57,149.47c-.02.15-.05.31-.07.46,6.31.72,12.63,1.44,18.94,2.16.02-.14.03-.29.05-.43-6.31-.73-12.61-1.46-18.92-2.19ZM531.64,156.48q.19,3.22,1.26,3.13c0-1.3.04-2.6-.01-3.9-.04-1.19-.75-1.51-2.51-1.18-1.17.22-.68.99-.6,1.66.64.1,1.22.19,1.86.29ZM543.06,167.81h3.88c0-.12,0-.24.01-.37h-3.6v-7.79c-.1,0-.2,0-.29.01v8.14ZM522.56,136.48c-2.41,0-4.73-.02-7.04.02-.44,0-.88.26-1.32.4.04.15.08.3.12.46,2.72-.33,5.57.77,8.25-.88ZM548.99,171.59c0-.12-.01-.24-.02-.37-1.95-.05-3.92-.42-5.82.37h5.84ZM513.01,139.21c1.43.07,2.93.73,4.25-.34-1.44-.09-2.89-.54-4.25.34Z"/>
      <path class="cls-1" d="M543.17,77.32c-.61.89-1.15,1.61-1.63,2.37-5.27,8.37-10.53,16.74-15.79,25.11-4.92,7.83-9.84,15.65-14.74,23.49-2.65,4.24-5.26,8.51-7.87,12.77-.55.9-.84.98-3.19.7.19-.39.34-.74.54-1.07,3.03-4.94,6.04-9.89,9.12-14.8,4.74-7.57,9.53-15.1,14.29-22.65,4.72-7.47,9.42-14.95,14.16-22.41,1.17-1.84,2.41-3.63,3.71-5.37.23-.3.92-.5,1.32-.4,7.67,1.8,15.34,3.66,23,5.5,11.07,2.66,22.14,5.31,33.22,7.96.17.04.35.03.71.06-.2-1.18.41-2.28-.58-3.44-.8-.94.15-2.47,1.44-2.7,1.44-.25,2.9-.42,4.3-.82,2.94-.83,5.76-.41,8.59.46,1.57.48,3.16.89,4.74,1.32,1.35.37,1.69,1.11,1.39,2.47-.35,1.59-.59,3.21-.78,4.82-.1.85-.07,1.74.04,2.59.06.4.43,1.02.73,1.06,2.47.36,3.77,2.33,5.2,3.92,4.12,4.58,8.02,9.35,12.02,14.04,5.02,5.9,10.04,11.8,15.09,17.68,4.19,4.87,8.41,9.71,12.61,14.57.47.54.87,1.13,1.3,1.7-.06.13-.11.26-.17.38-1.54-.19-3.09-.36-4.63-.59-9.56-1.41-19.13-2.83-28.69-4.26-12.22-1.83-24.44-3.68-36.66-5.51-1.26-.19-2.53-.45-3.79-.48-1.4-.04-2.26-.77-3.04-1.77-1.87-2.36-3.74-4.72-5.64-7.06-5.17-6.37-10.36-12.71-15.52-19.09-4.64-5.74-9.23-11.52-13.87-17.26-3.23-4-6.49-7.98-9.75-11.96-.34-.41-.7-.8-1.18-1.35ZM608.75,87.95c-2.2.31-4.09.74-5.98.79-1.5.04-1.71.81-1.71,1.95,0,2.92,0,5.84,0,8.76,0,.72,0,1.43,0,2.22h3.32c0,.08.02.17.03.25-1.05.12-2.1.24-3.18.36v1.77h3.65l.02.28c-1.23.13-2.45.27-3.76.41.03.69.06,1.25.09,1.9,1.84-.18,3.51-.38,5.19-.49.3-.02.62.3.93.46-.28.16-.55.41-.85.45-1.75.26-3.5.47-5.33.7.02.54.04.98.07,1.61,2.16-.19,4.22-.36,6.28-.54.07.14.14.27.21.41-.3.21-.58.53-.91.6-1.85.37-3.71.67-5.57,1l.02.57c2.03.8,4.18-.39,6.31,0v1.19c-1.54.51-3.26.1-4.64.96.01.13.03.26.04.38h4.58v1.65c-.96.1-1.84.2-2.71.29,0,.17,0,.34,0,.51.89.06,1.77.11,2.64.17q.43,2.7,1.26,3.05v-31.66ZM594.98,107.7c-.09.1-.18.2-.27.3,6,6.9,11.35,14.39,18.49,20.25-1.26-1.78-2.7-3.41-4.12-5.04-4.11-4.71-8.21-9.42-12.34-14.11-.49-.55-1.16-.94-1.75-1.41ZM642.58,135.88c.03-.16.06-.32.09-.48-11.95-1.87-23.9-3.75-35.85-5.62-.02.12-.04.24-.06.36,11.94,1.91,23.88,3.82,35.83,5.74ZM601.44,86.72c2.11-.29,4.16-.61,6.23-.85,1.29-.15,1.26-.81.86-1.8-2.1.35-4.14.75-6.2,1.01-1,.13-1.22.55-.88,1.63ZM578.59,92.51c-.04.11-.08.23-.12.34,3.78.75,7.57,1.51,11.35,2.26.03-.13.05-.27.08-.4l-11.31-2.2ZM603.39,123.92c0-.14.01-.28.02-.41-3.4-.51-6.8-1.01-10.2-1.52-.02.14-.04.29-.06.43,3.41.5,6.83,1,10.24,1.5ZM597.96,119.46c0-.1,0-.2-.01-.3-2.34-.38-4.67-.75-7.01-1.13-.01.09-.03.19-.04.28,2.35.38,4.71.77,7.06,1.15ZM634.43,127.67c.01-.08.03-.16.04-.24l-5.95-1.08c-.01.07-.03.15-.04.22,1.98.37,3.96.73,5.95,1.1Z"/>
      <path class="cls-1" d="M661.35,214.5c-.34.01-.68.03-1.02.04-.02-.17-.04-.35-.07-.52v.04c-.3-.09-.61-.18-.92-.28.4-.51.86-1.02-.12-1.47.84-.7,1.49-1.01,1.97.3.13.36.66.57.99.84-.3.38-.57.72-.83,1.05Z"/>
      <path class="cls-1" d="M482.43,157.87v-13.34s.03,0,.05,0v13.38s-.03-.03-.05-.04Z"/>
      <path class="cls-1" d="M488.2,200.66c-.03.08-.06.17-.09.25-.32.27-.64.53-.96.8-.31-.41-.62-.83-.94-1.24.05-.06.09-.12.14-.18.28.14.57.28.97.47-.05-.44-.09-.79-.14-1.18.45.07.82.12,1.27.19-.08.3-.17.6-.25.89Z"/>
      <path class="cls-1" d="M482.48,46.24v10.05s-.04,0-.06,0v-10.09s.04.02.06.04Z"/>
      <path class="cls-4" d="M497.61,212.5c.18,1.1-.46,1.08-1.39.93.11-.78.21-1.52.31-2.25,0,0-.03-.03-.03-.03l1.11,1.35Z"/>
      <path class="cls-1" d="M668.99,200.72l3.51-.37c.02.07.03.15.05.22-1.14.2-2.28.39-3.42.59-.05-.15-.09-.29-.14-.44Z"/>
      <path class="cls-4" d="M659.34,213.78c.31.09.62.18.92.28-.13.07-.26.14-.39.2l.02-.04c-.17-.17-.33-.33-.5-.5,0,0-.05.06-.05.06Z"/>
      <path class="cls-4" d="M496.5,211.15s.03.03.03.03c-.1-.07-.2-.14-.3-.21.09.06.18.12.27.17Z"/>
      <path class="cls-4" d="M557.63,132.95c1.01.11,2.02.23,3.02.34,1.22.13,2.45.2,3.65.4.54.09,1.17.29,1.54.66,3.93,3.93,7.81,7.91,11.71,11.86,2.46,2.49,4.89,5.02,7.45,7.41.38.35,1.28,1.86,2.17.2.09-.16.6-.09.98-.14-6.79-7.22-13.55-14.4-20.3-21.59-1.19-1.27-2.43-2-4.38-1.55-2.3.53-4.72.49-7.05.9-4.46.8-8.69-.44-12.99-1.18-1.44-.25-2.84-.68-4.28-.91-.53-.09-1.18.04-1.68.27-3.89,1.79-7.74,3.66-11.65,5.41-.77.34-1.72.36-2.59.36-2.14,0-4.29-.09-6.43-.16-.39-.01-.78-.09-1.17-.13-.03-.14-.06-.27-.09-.41.49-.13.98-.35,1.48-.39,3.09-.21,6.19-.38,9.28-.57.31-.02.61-.08.92-.12,0-.12,0-.24.01-.36l-10.26-.39c-.03-.15-.06-.3-.08-.46.44-.13.88-.35,1.32-.38,3.6-.21,7.2-.39,10.8-.58.42-.02.85-.08,1.27-.12,0-.13-.01-.26-.02-.39h-12.1c-.05-.2-.09-.39-.14-.59.54-.18,1.06-.49,1.61-.53,3.87-.22,7.75-.38,11.62-.56.36-.02.71-.04,1.07-.06,0-.14,0-.29,0-.43h-12.83c-.03-.23-.07-.46-.1-.69.48-.15.96-.39,1.45-.42,3.78-.22,7.56-.4,11.35-.6.27-.01.54-.06.81-.09,0-.13,0-.26,0-.4h-12.3c-.03-.22-.06-.44-.1-.65.49-.15.97-.38,1.47-.42,3.27-.23,6.54-.42,9.81-.63.31-.02.61-.06.92-.08,0-.14,0-.28,0-.41h-10.74c-.04-.22-.08-.45-.11-.67.47-.15.93-.41,1.41-.44,2.36-.18,4.73-.29,7.09-.45.2-.01.4-.13.6-.2,0-.12-.01-.25-.02-.37h-7.64c-.06-.2-.11-.4-.17-.6.43-.2.84-.55,1.28-.58,2.04-.17,4.1-.24,6.14-.37.44-.03.88-.15,1.32-.23-.01-.12-.02-.24-.03-.37-2.36-.11-4.73-.22-7.4-.34,1.43-1.56,3.58-.23,5.05-1.82-1.39-.09-2.38-.16-3.66-.24,1.27-1.5,3.09-.57,4.66-1.79-1.26-.06-2.17-.1-3.07-.14.33-.94,1.68-1.61,3.02-1.63-.51-.23-1.03-.46-1.74-.78.61-.56,1.17-1.07,1.8-1.65.05.12.14.36.24.6.09-.05.18-.11.28-.16-.25-.43-.5-.87-.71-1.25.37-.68.69-1.42,1.16-2.05.3-.41.8-.83,1.27-.92,1.25-.24,2.53-.31,3.81-.69-1.22-.12-2.44-.25-4.02-.41.76-.71,1.38-1.3,2.1-1.97,0-.18-.15-.93.03-1.02.63-.31,1.36-.47,2.07-.54.83-.08,1.67-.02,2.51-.02,0-.16,0-.33.01-.49h-3.88c.3-.55.4-.94.64-1.12.56-.39.87-.75,1.06-1.5.14-.56,1.18-.89,1.91-1.39-.18-.15-.44-.36-.69-.56.82-1.69,2.58-1.49,4.12-1.73-.04-.13-.09-.27-.13-.4-.69-.04-1.38-.08-2.33-.13,1.36-2.61,4.01-.66,5.58-2.16h-3.93c.5-1.71,1.52-1.91,2.83-1.84,1,.06,2.01-.15,3.01-.24,0-.11-.01-.23-.02-.34h-4.61c.31-.44.43-.79.65-.9,1.41-.69,4.01-.1,5.02,1.14,5.64,6.98,11.28,13.96,16.91,20.96,5.09,6.32,10.14,12.66,15.24,18.97,2.55,3.15,5.18,6.22,7.73,9.37.36.44.57,1.14.57,1.71-.02,4.27-.14,8.54-.16,12.81-.01,2.52.14,5.03.15,7.55.03,5.4.03,10.8,0,16.19,0,1.76-.11,1.79-1.9,1.8-8.54.01-17.08.03-25.61.04-.54,0-1.07,0-1.68,0-.05-.49-.13-.84-.13-1.19,0-6.53.01-13.06.02-19.58,0-.78,0-1.58,1.14-1.78.03.49.07.93.07,1.37.03,4.2.08,8.4.06,12.6,0,1.18.37,1.6,1.59,1.57,3.29-.09,6.58-.11,9.86-.05,1.32.03,1.82-.27,1.81-1.73-.05-5.48.08-10.96.06-16.43,0-1.25.42-1.69,1.63-1.72,2.45-.06,4.9-.2,7.47-.32-.26-.3-.5-.6-.77-.87-4.82-4.84-9.64-9.68-14.48-14.5-1.09-1.09-2.11-2.36-3.42-3.09-1.3-.73-2.92-.88-4.4-1.28-.93-.25-1.87-.48-2.8-.71.02-.12.05-.24.07-.37ZM556.56,126.27v-21.42c-5.14.56-10.14,1.1-15.17,1.64v21.26c5.03-.49,10.04-.98,15.17-1.48ZM588.37,179.18c-5.54-.47-11.08-.45-16.61.02,5.54.52,11.08.67,16.61-.02ZM541.38,105.32c0-.12,0-.25,0-.37h-5.31c0,.12,0,.25,0,.37h5.31ZM545.9,98.56v-.21h-3.88c0,.15.01.31.02.46,1.29-.08,2.58-.17,3.87-.25ZM529.99,118.11c.01.12.02.24.03.36h2.48c0-.12,0-.24,0-.36h-2.51Z"/>
      <path class="cls-4" d="M610.61,196.02v-3.2c.45-.04.83-.08,1.37-.13v5.72c.67.06,1.19.1,1.8.16v7.47h-1.83c0-1.9,0-3.75,0-5.61,0-1.83-.33-2.06-2.13-1.53-3.19.94-6.35,1.96-9.56,2.8-1.26.33-2.62.32-3.94.32-10.96.04-21.92-.02-32.88.08-4.46.04-8.69-.87-12.83-2.39-1.23-.45-2.47-.9-3.9-1.42v7.74h-2.08v-7.53c1.8.23,1.82-.91,1.7-2.18-.05-.54-.03-1.09-.03-1.64q-.01-1.65,1.8-1.4c.04.87.09,1.76.14,2.74h62.38Z"/>
      <path class="cls-4" d="M534.01,163.89h-12.09c0,.15,0,.3-.01.46,1.46.09,2.91.25,4.37.27,3.51.04,7.02,0,10.53.05.4,0,.8.44,1.2.67-.41.23-.81.67-1.22.67-4.7.06-9.4.05-14.1.08-.67,0-1.33.09-2.01.44.41.03.82.08,1.23.09,4.83.09,9.67.21,14.5.24,1.15,0,1.61.3,1.59,1.54-.07,3.96-.03,7.92-.03,11.81h-20.27c-.01-.17-.02-.33-.04-.5.48-.05.97-.12,1.45-.15,3.64-.22,7.29-.41,10.93-.67.5-.04.98-.44,1.47-.68l-.14-.38c-4.66-.15-9.32-.3-13.98-.45,0-.05,0-.1.01-.15,5.71-.33,11.42-.67,17.13-1,.01-.15.02-.29.04-.44-.44-.06-.87-.17-1.31-.18-4.84-.13-9.67-.22-14.51-.37-.49-.02-.98-.33-1.47-.51.52-.22,1.03-.62,1.56-.64,4.47-.17,8.94-.26,13.41-.39.47-.01.93-.11,1.38-.47-2.21-.11-4.41-.25-6.62-.31-2.74-.07-5.48-.04-8.22-.11-.51-.01-1.01-.3-1.52-.47.49-.19.98-.53,1.47-.54,4.38-.12,8.76-.19,13.14-.28.57-.01,1.14-.1,1.71-.49-2.33-.12-4.65-.28-6.98-.34-2.74-.08-5.48-.04-8.22-.12-.39-.01-.76-.38-1.14-.58.36-.25.72-.69,1.09-.71,3.65-.12,7.3-.16,10.95-.25,1.63-.04,3.26-.15,4.93-.53-.53-.06-1.05-.16-1.58-.16-4.61-.03-9.22-.07-13.83-.04-1.18,0-1.69-.24-1.65-1.58.1-3.6.09-7.21,0-10.82-.03-1.34.58-1.69,1.62-1.34,1.18.39,2.28,1.03,3.41,1.56-.03.16-.05.32-.08.48-.91.07-1.83.13-2.74.2v.33c2.1.43,4.19.85,6.29,1.28,0,.05.01.1.02.15-1.85.24-3.7.48-5.49.71,2.48,1.25,5.59-.06,8,2.04-2.38.13-4.68.25-6.98.38,4.21,1.21,8.71.15,12.84,1.77-.02.15-.05.3-.07.45Z"/>
      <path class="cls-4" d="M504.03,181.3v-27.86c2.96.25,5.88.5,8.96.76v27.1h-8.96Z"/>
      <path class="cls-4" d="M548.32,189.41c.27,2.24.15,2.38-1.94,2.4-4.84.05-9.68.09-14.52.18-.44,0-1.03.16-1.29.47-1.44,1.7-3.63,1.78-5.05.14-.22-.25-.58-.5-.89-.51-.8-.03-2.82,2.26-2.83,3.13-.01,1.73,0,3.45,0,5.26h-2.9v-6.56h2.19c0-.06,0-.12,0-.17-.66-.04-1.39.09-1.96-.15-.58-.25-.95-.94-1.52-1.28-.26-.16-.85-.06-1.13.14-1.8,1.36-3.76,1.33-5.56.05-.43-.31-1.32-.35-1.81-.12-1.88.9-3.66,1.13-5.58.1-.51-.27-1.31-.04-1.98.02-.62.06-1.22.21-2.01.36v-3.47h48.77ZM537.55,191.38s0,.03,0,.04h9.53v-.04h-9.53Z"/>
      <path class="cls-4" d="M495.32,152.22c-.51-1.46.29-1.78,1.33-2.23,3.88-1.69,7.7-3.53,11.55-5.3,9.85-4.53,19.7-9.06,29.58-13.53.58-.26,1.57-.15,2.13.19,2.53,1.53,5,3.17,7.46,4.83,5.77,3.91,11.48,7.91,17.31,11.72,1.32.86,3.03,1.12,4.54,1.65-1.27-.18-2.6-.58-3.9-.49-1.57.11-2.58-.75-3.71-1.5-7.2-4.81-14.4-9.62-21.59-14.47-.78-.52-1.41-.57-2.26-.18-8.84,4.11-17.7,8.2-26.56,12.27-4.59,2.11-9.2,4.19-13.81,6.26-.66.3-1.36.5-2.08.77Z"/>
      <path class="cls-4" d="M504.87,185.45c1.96,0,3.83,0,5.7,0,13.24,0,26.48,0,39.72.04.6,0,1.6-.49,1.64.79.03,1.2-.71,1.41-1.71,1.39-4.61-.09-9.21-.25-13.82-.21-4.23.04-8.45.4-12.68.45-5.61.08-11.23,0-16.85-.02-1.93,0-2.18-.3-1.99-2.44ZM505.98,187.25c0,.07,0,.13,0,.2h18.27c0-.07,0-.13,0-.2h-18.27Z"/>
      <path class="cls-4" d="M582.99,229.3h-3.28v-25.63h3.28v25.63Z"/>
      <path class="cls-4" d="M567.1,203.66h3.11v25.58h-3.11v-25.58Z"/>
      <path class="cls-4" d="M587.2,229.29h-3.14v-25.58h3.14v25.58Z"/>
      <path class="cls-4" d="M591.27,229.31h-2.97v-25.63h2.97v25.63Z"/>
      <path class="cls-4" d="M604.11,202.61c.99-.12,1.87-.22,2.88-.34v27.1h-2.88v-26.76Z"/>
      <path class="cls-4" d="M578.59,229.3h-3.05v-25.62h3.05v25.62Z"/>
      <path class="cls-4" d="M571.4,203.64h2.98v25.62h-2.98v-25.62Z"/>
      <path class="cls-4" d="M592.41,203.66h2.75v25.64h-2.75v-25.64Z"/>
      <path class="cls-4" d="M603.07,203.12v26.23h-2.81c0-2.41,0-4.76,0-7.12.02-5.57.03-11.14.06-16.71.01-2.41.15-2.53,2.75-2.4Z"/>
      <path class="cls-4" d="M538.43,146.63c.87-1.4,1.63-2.6,2.37-3.82.36-.58.64-1.22,1.05-1.76.17-.22.59-.24.9-.36,0,.32.13.7,0,.93-1.01,1.73-2.08,3.43-3.12,5.15-.14.22-.2.49-.46,1.13,4.87-.16,9.52-.31,14.43-.47-.37-.42-.57-.65-.77-.88l.1-.19c1,.58,2,1.16,3.34,1.94-11.32.39-22.27.76-33.22,1.13,0-.14-.02-.28-.02-.42,4.92-.31,9.84-.63,15.19-.97-.66-.77-1.09-1.26-1.5-1.76-1.16-1.41-2.36-2.79-3.46-4.24-.63-.84-1.22-.85-2.1-.41-5.38,2.69-10.79,5.34-16.19,7.99-.41.2-.86.3-1.29.44-.07-.17-.14-.34-.21-.51,8.03-3.96,16.06-7.92,24.09-11.87.04.07.09.14.13.21-1.39.88-2.79,1.75-4.35,2.74,1.66,1.95,3.22,3.77,5.12,6Z"/>
      <path class="cls-4" d="M599.11,229.34h-2.49c-.03-.39-.09-.78-.09-1.17-.02-7.76-.04-15.52-.06-23.28,0-1.45.02-1.46,2.64-1.23v25.68Z"/>
      <path class="cls-4" d="M515.72,183.47v-1.43h41.43v1.43h-41.43Z"/>
      <path class="cls-4" d="M565.89,229.29h-2.3v-25.6h2.3v25.6Z"/>
      <path class="cls-4" d="M607.65,163.03c1.57.09,2.88.17,4.25.25.05.31.13.57.13.83.01,3.79,0,7.58.03,11.37,0,.88-.24,1.18-1.16,1.19-3.24.04-3.24.07-3.25-3.21,0-3.41,0-6.83,0-10.42Z"/>
      <path class="cls-4" d="M606.37,231.44c-4.61,1.11-41.75,1.22-52.12.24,4.27-.98,45.04-1.2,52.12-.24Z"/>
      <path class="cls-4" d="M544.67,209.08h1.97v22.45h-1.97v-22.45Z"/>
      <path class="cls-4" d="M613,163.32c1.14.08,2.22.16,3.4.24.05.39.13.73.13,1.08.02,3.56-.01,7.11.06,10.67.02,1.1-.34,1.48-1.41,1.36-.67-.07-1.35-.01-2.19-.01v-13.34Z"/>
      <path class="cls-4" d="M623.77,203.39h2.58c.03.43.09.82.09,1.21.02,4.24.03,8.47.03,12.71,0,1.39-1.17,2.85-2.7,3.33v-17.25Z"/>
      <path class="cls-4" d="M640.67,165.11v11.41h-3.65v-11.72c1.23.11,2.42.21,3.65.31Z"/>
      <path class="cls-4" d="M612.11,209.14h1.68v22.42h-1.68v-22.42Z"/>
      <path class="cls-4" d="M632.57,164.66c1.21.07,2.29.13,3.45.2v11.68h-3.45v-11.88Z"/>
      <path class="cls-4" d="M623.33,196.89h-9.87v-3.81h10.06c.42,1.7.27,1.91-1.44,1.92-2.18.02-4.37,0-6.55,0,0,.13,0,.26,0,.4,2.22,0,4.45.03,6.67-.01,1.04-.02,1.46.36,1.13,1.5Z"/>
      <path class="cls-4" d="M544.9,193.14c0,1.07.05,2.07-.03,3.05-.02.28-.45.74-.7.74-3.27.05-6.55.03-9.91.03v-3.83h10.64ZM543.24,195.33c0-.07,0-.15-.01-.22h-7.55v.22h7.56Z"/>
      <path class="cls-4" d="M568.71,163.02h3.87v8.08c-1.08,0-2.16.04-3.22-.03-.23-.02-.61-.43-.62-.67-.05-2.4-.03-4.8-.03-7.38Z"/>
      <path class="cls-4" d="M557.78,150.58c.07.32.2.64.21.97.1,9.47.18,18.95.24,28.42,0,.34-.35.68-.53,1.03-.2-.32-.57-.65-.57-.97.01-9.57.06-19.13.11-28.7,0-.24.1-.48.16-.73.13,0,.25-.02.38-.02Z"/>
      <path class="cls-4" d="M611.97,154.95v7.53c-1.41-.09-2.74-.17-4.17-.26v-7.54c1.42.09,2.75.18,4.17.27Z"/>
      <path class="cls-4" d="M567.81,171.1c-1.11,0-2.11.04-3.09-.03-.25-.02-.66-.4-.67-.62-.05-2.4-.03-4.8-.03-7.32h3.79v7.97Z"/>
      <path class="cls-4" d="M555.76,151.66c.08,1.19.23,2.39.24,3.58.02,8.16.02,16.32-.01,24.48,0,.38-.35.76-.53,1.14-.15-.37-.44-.73-.44-1.1-.02-8.62,0-17.23.02-25.85,0-.75.14-1.51.22-2.26.17,0,.34,0,.51,0Z"/>
      <path class="cls-4" d="M539.66,180.49c-.02-.26-.07-.52-.07-.79-.02-7.79-.03-15.59-.04-23.38,0-.14-.03-.29.02-.41.18-.44.39-.88.59-1.31.18.44.5.88.51,1.32.05,7.84.06,15.68.08,23.52,0,.68.12,1.48-1.09,1.05Z"/>
      <path class="cls-4" d="M567.73,154.82v7.36h-3.65c0-2.21-.02-4.38.03-6.55,0-.27.41-.74.67-.77.93-.09,1.88-.04,2.95-.04Z"/>
      <path class="cls-4" d="M618.13,187.49c7.12-.61,39.91-.57,40.81.02-.71.53-28.38.54-40.81-.02Z"/>
      <path class="cls-4" d="M616.43,162.77c-1.21-.09-2.33-.18-3.46-.27v-7.46c1.19.1,2.27.2,3.46.3v7.43Z"/>
      <path class="cls-4" d="M572.55,154.71v7.38h-3.61v-7.38h3.61Z"/>
      <path class="cls-4" d="M501.65,155.1c.05.21.13.42.13.63.11,8.2.21,16.4.29,24.59,0,.32-.3.65-.46.97-.19-.34-.55-.68-.55-1.02-.01-7.98,0-15.96.04-23.94,0-.43.12-.85.18-1.28.12.02.24.03.36.05Z"/>
      <path class="cls-4" d="M640.56,157.11v7.15c-1.12-.07-2.27-.14-3.52-.21v-7.11c1.19.06,2.25.11,3.52.17Z"/>
      <path class="cls-4" d="M615.28,231.39c0-2.03.01-4.05,0-6.08-.05-8.03-.1-16.06-.15-24.09,0-.27-.06-.57.03-.82.12-.32.36-.59.55-.88.15.29.41.57.42.87.05,1.96.05,3.92.04,5.89-.04,7.07-.08,14.15-.14,21.22-.01,1.3-.12,2.6-.18,3.91-.19,0-.37,0-.56,0Z"/>
      <path class="cls-4" d="M635.97,163.95c-1.15-.06-2.23-.11-3.38-.16v-6.98c.96,0,1.86-.05,2.74.03.23.02.61.45.62.69.05,2.08.03,4.16.03,6.42Z"/>
      <path class="cls-4" d="M652.26,193.99h3.68v6.27c-3.4.85-3.4-.07-3.42-2.07-.01-1.37-.16-2.73-.26-4.2Z"/>
      <path class="cls-4" d="M637.95,194h3.25v6.49h-3.25v-6.49Z"/>
      <path class="cls-4" d="M551.74,229.2v-26.46c.12-.03.24-.06.35-.08.11.35.33.7.33,1.06.01,8.16,0,16.32,0,24.48,0,.36-.13.72-.2,1.07-.16-.02-.32-.05-.48-.07Z"/>
      <path class="cls-4" d="M535.48,221.94c-.18-.23-.23-.26-.23-.3-.16-7.23-.33-14.46-.46-21.69,0-.28.35-.58.54-.86.19.29.55.58.55.87-.06,7.06-.17,14.12-.27,21.18,0,.21-.06.43-.12.81Z"/>
      <path class="cls-4" d="M496.73,193.82h3.22c0,1.57-.02,3.2,0,4.82.03,1.9.05,1.9-1.79,1.88-.4,0-.79-.05-1.43-.1v-6.61Z"/>
      <path class="cls-4" d="M558.05,229.59v-26.07c.86.78.95,24.64,0,26.07Z"/>
      <path class="cls-4" d="M561.21,203.66c.69.83.89,23.97.32,25.58-.57-.53-.89-23.33-.32-25.58Z"/>
      <path class="cls-4" d="M507.29,200.47h-2.96v-6.5h2.96v6.5Z"/>
      <path class="cls-4" d="M645.29,193.96h3.23v6.55h-2.8c-.15-2.18-.29-4.33-.44-6.55Z"/>
      <path class="cls-4" d="M514.72,193.75v6.73h-2.88c0-1.97-.03-3.96.03-5.94,0-.27.43-.71.71-.75.73-.11,1.48-.04,2.14-.04Z"/>
      <path class="cls-4" d="M633.62,200.48h-2.78v-6.48h2.78v6.48Z"/>
      <path class="cls-4" d="M533.55,220.05c-.17-.71-.49-1.42-.5-2.13-.04-4.47-.02-8.94.03-13.42,0-.4.33-.79.51-1.19.16.4.46.8.47,1.2.04,4.84.03,9.67.03,14.51,0,.3-.03.61-.05.91l-.48.11Z"/>
      <path class="cls-4" d="M526.38,193.94h2.58v6.49h-2.58v-6.49Z"/>
      <path class="cls-4" d="M555,229.22v-26.12c.17,0,.33,0,.5,0,.18,8.71.06,17.42.11,26.13-.2,0-.4,0-.61,0Z"/>
      <path class="cls-4" d="M514.88,177.29v-22.81c.67.65.88,15.11,0,22.81Z"/>
      <path class="cls-4" d="M542.62,199.27c.85.83.93,13.22,0,25.73v-25.73Z"/>
      <path class="cls-4" d="M548.39,229.5v-28.56c.1,0,.21,0,.31,0v28.54c-.1,0-.21.02-.31.03Z"/>
      <path class="cls-4" d="M626.47,193.82v6.69h-2.56c-.44-1.84-.36-1.97,1.48-2.19,0-1.19-.02-2.4,0-3.61.02-1.02.04-1.02,1.07-.9Z"/>
      <path class="cls-4" d="M624.57,149.47c6.31.73,12.61,1.46,18.92,2.19-.02.14-.03.29-.05.43-6.31-.72-12.63-1.44-18.94-2.16.02-.15.05-.31.07-.46Z"/>
      <path class="cls-4" d="M531.64,156.48c-.64-.1-1.22-.19-1.86-.29-.08-.67-.57-1.45.6-1.66,1.76-.33,2.47,0,2.51,1.18.05,1.3.01,2.61.01,3.9q-1.07.09-1.26-3.13Z"/>
      <path class="cls-4" d="M543.06,167.81v-8.14c.1,0,.2,0,.29-.01v7.79h3.6c0,.12,0,.24-.01.37h-3.88Z"/>
      <path class="cls-4" d="M522.56,136.48c-2.68,1.65-5.53.55-8.25.88-.04-.15-.08-.3-.12-.46.44-.14.88-.4,1.32-.4,2.32-.04,4.63-.02,7.04-.02Z"/>
      <path class="cls-4" d="M548.99,171.59h-5.84c1.9-.78,3.87-.41,5.82-.37,0,.12.01.24.02.37Z"/>
      <path class="cls-4" d="M513.01,139.21c1.36-.89,2.81-.43,4.25-.34-1.32,1.08-2.82.42-4.25.34Z"/>
      <path class="cls-4" d="M660.26,214.02c.02.17.04.35.07.52-.15-.11-.29-.21-.44-.32,0,0-.02.04-.02.04.13-.08.26-.16.39-.24Z"/>
      <path class="cls-4" d="M608.75,87.95v31.66q-.83-.35-1.26-3.05c-.87-.06-1.76-.11-2.64-.17,0-.17,0-.34,0-.51.87-.09,1.74-.19,2.71-.29v-1.65h-4.58c-.01-.13-.03-.26-.04-.38,1.39-.87,3.1-.45,4.64-.96v-1.19c-2.13-.39-4.28.8-6.31,0l-.02-.57c1.86-.33,3.72-.63,5.57-1,.33-.07.61-.39.91-.6-.07-.14-.14-.27-.21-.41-2.06.18-4.11.35-6.28.54-.03-.63-.05-1.07-.07-1.61,1.83-.23,3.58-.44,5.33-.7.3-.04.56-.3.85-.45-.31-.16-.63-.48-.93-.46-1.68.11-3.35.31-5.19.49-.03-.64-.06-1.2-.09-1.9,1.31-.14,2.53-.28,3.76-.41l-.02-.28h-3.65v-1.77c1.08-.12,2.13-.24,3.18-.36,0-.08-.02-.17-.03-.25h-3.32c0-.79,0-1.5,0-2.22,0-2.92,0-5.84,0-8.76,0-1.14.21-1.91,1.71-1.95,1.9-.05,3.78-.48,5.98-.79Z"/>
      <path class="cls-4" d="M594.98,107.7c.59.46,1.27.85,1.75,1.41,4.13,4.69,8.23,9.4,12.34,14.11,1.43,1.63,2.86,3.26,4.12,5.04-7.15-5.86-12.49-13.36-18.49-20.25.09-.1.18-.2.27-.3Z"/>
      <path class="cls-4" d="M642.58,135.88c-11.94-1.91-23.88-3.82-35.83-5.74.02-.12.04-.24.06-.36,11.95,1.87,23.9,3.75,35.85,5.62-.03.16-.06.32-.09.48Z"/>
      <path class="cls-4" d="M601.44,86.72c-.35-1.08-.13-1.51.88-1.63,2.06-.26,4.1-.66,6.2-1.01.41.99.44,1.65-.86,1.8-2.06.24-4.12.56-6.23.85Z"/>
      <path class="cls-4" d="M578.59,92.51l11.31,2.2c-.03.13-.05.27-.08.4-3.78-.75-7.57-1.51-11.35-2.26.04-.11.08-.23.12-.34Z"/>
      <path class="cls-4" d="M603.39,123.92c-3.41-.5-6.83-1-10.24-1.5.02-.14.04-.29.06-.43,3.4.51,6.8,1.01,10.2,1.52,0,.14-.01.28-.02.41Z"/>
      <path class="cls-4" d="M597.96,119.46c-2.35-.38-4.71-.77-7.06-1.15.01-.09.03-.19.04-.28,2.34.38,4.67.75,7.01,1.13,0,.1,0,.2.01.3Z"/>
      <path class="cls-4" d="M634.43,127.67c-1.98-.37-3.96-.73-5.95-1.1.01-.07.03-.15.04-.22l5.95,1.08c-.01.08-.03.16-.04.24Z"/>
      <path class="cls-1" d="M660.26,214.02c-.13.08-.26.16-.39.24.13-.07.26-.13.39-.2,0,0,0-.04,0-.04Z"/>
      <path class="cls-1" d="M556.56,126.27c-5.12.5-10.14.99-15.17,1.48v-21.26c5.02-.54,10.03-1.08,15.17-1.64v21.42ZM555.13,124.86v-9.41c-1.75.12-3.4.22-5.03.33v9.48c1.74-.14,3.35-.26,5.03-.4ZM549.05,115.87c-1.54.11-2.86.17-4.17.33-.28.04-.74.45-.74.7-.05,2.91-.03,5.82-.03,8.92,1.79-.21,3.39-.4,4.94-.58v-9.37ZM555.21,114.54c0-2.05.04-3.95-.04-5.85-.01-.28-.59-.76-.9-.75-1.18.02-2.36.15-3.52.34-.28.05-.69.47-.7.73-.06,1.89-.03,3.79-.03,5.89,1.8-.13,3.45-.24,5.2-.36ZM549.01,114.96v-6.47c-1.45.21-2.79.37-4.12.63-.28.05-.7.42-.71.66-.06,1.79-.03,3.59-.03,5.48,1.73-.11,3.25-.2,4.86-.3Z"/>
      <path class="cls-1" d="M588.37,179.18c-5.53.69-11.07.54-16.61.02,5.53-.47,11.07-.49,16.61-.02Z"/>
      <path class="cls-1" d="M541.38,105.32h-5.31c0-.12,0-.25,0-.37h5.31c0,.12,0,.25,0,.37Z"/>
      <path class="cls-1" d="M545.9,98.56c-1.29.08-2.58.17-3.87.25,0-.15-.01-.31-.02-.46h3.88v.21Z"/>
      <path class="cls-1" d="M529.99,118.11h2.51c0,.12,0,.24,0,.36h-2.48c-.01-.12-.02-.24-.03-.36Z"/>
      <path class="cls-1" d="M537.55,191.38h9.53v.04h-9.53s0-.03,0-.04Z"/>
      <path class="cls-1" d="M505.98,187.25h18.27c0,.07,0,.13,0,.2h-18.27c0-.07,0-.13,0-.2Z"/>
      <path class="cls-1" d="M543.24,195.33h-7.55v-.22h7.54c0,.07,0,.15.01.22Z"/>
      <path class="cls-4" d="M555.13,124.86c-1.68.13-3.29.26-5.03.4v-9.48c1.63-.11,3.28-.22,5.03-.33v9.41Z"/>
      <path class="cls-4" d="M549.05,115.87v9.37c-1.55.18-3.15.37-4.94.58,0-3.1-.02-6.01.03-8.92,0-.25.46-.66.74-.7,1.31-.16,2.62-.22,4.17-.33Z"/>
      <path class="cls-4" d="M555.21,114.54c-1.75.12-3.4.24-5.2.36,0-2.1-.03-3.99.03-5.89,0-.26.42-.69.7-.73,1.16-.19,2.34-.33,3.52-.34.31,0,.89.48.9.75.08,1.9.04,3.8.04,5.85Z"/>
      <path class="cls-4" d="M549.01,114.96c-1.61.1-3.13.19-4.86.3,0-1.89-.03-3.69.03-5.48,0-.23.43-.6.71-.66,1.33-.25,2.67-.42,4.12-.63v6.47Z"/>
    </g>
  </g>
</svg>